<svg xmlns="http://www.w3.org/2000/svg" width="24" height="24" viewBox="0 0 24 24" fill="none" stroke="currentColor" stroke-width="2" stroke-linecap="round" stroke-linejoin="round">
  <path d="M16.5 12C16.5 14.4854 14.4854 16.5 12 16.5C9.5147 16.5 7.5 14.4854 7.5 12C7.5 9.5147 9.5147 7.5 12 7.5C14.4854 7.5 16.5 9.5147 16.5 12ZM20.5 12L22 12M18.0104 18.0104L19.0711 19.0711M12 20.5L12 22M5.9896 18.0104L4.9289 19.0711M3.5 12L2 12M5.9896 5.9896L4.9289 4.9289M12 3.5L12 2M18.0104 5.9896L19.0711 4.9289" fill="none"/>
</svg>
